# xmcd CD database file
# Copyright (C) 2006 Ti Kan
# 
# Track frame offsets:
#     150
#     32130
#     55551
#     86407
#     122705
#     140123
#     157991
#     186108
#     205087
#     221287
#     236205
#     254585
#     283229
# 
# Disc length: 4089 seconds
# 
# Revision: 1
# Processed by: cddbd v1.5.2PL0 Copyright (c) Steve Scherf et al.
# Submitted via: DiscPlay 4.0.4
# 
DISCID=be0ff70d
DTITLE=Roxette - Spending My Time DJ Remix
DYEAR=1900
DGENRE=
TTITLE0=The Look (Hip-Hop Dance Remix)
TTITLE1=Spending My Time (Club Remix)
TTITLE2=Cry (Extended Remix)
TTITLE3=Stars (Almighty 12 Definitive Mix) Stars (Bolero Mix) Stars (Fatboy 
TTITLE3=Slim Remix) Stars (X-Treme Extended Mix) Fireworks (Jesus Jones Remi
TTITLE3=x) Centre Of The Heart (Stonebridge Remix) Real Sugar (Remix) Fool (
TTITLE3=Nobby A Remix) Dangerous (Remix) Take My Breath Away (Techno Remix)
TTITLE4=
TTITLE5=
TTITLE6=
TTITLE7=
TTITLE8=
TTITLE9=
TTITLE10=
TTITLE11=
TTITLE12=
EXTD=
EXTT0=
EXTT1=
EXTT2=
EXTT3=
EXTT4=
EXTT5=
EXTT6=
EXTT7=
EXTT8=
EXTT9=
EXTT10=
EXTT11=
EXTT12=Berlin
PLAYORDER=
